<svg xmlns="http://www.w3.org/2000/svg" width="52" height="50" viewBox="0 0 52 50"><g><g><path fill="#5eb6c4" d="M17.339.011H34.66c1.6 0 2.89 1.313 2.89 2.942V7.36h11.548c1.6 0 2.89 1.313 2.89 2.942v16.17H.012v-16.17C.01 8.672 1.3 7.36 2.9 7.36h11.547V2.953c0-1.629 1.29-2.942 2.89-2.942zm2.883 2.942c-.796 0-1.438.654-1.438 1.473V7.36h14.438V4.426c0-.82-.649-1.473-1.445-1.473zM1.456 29.405h21.657v4.416c0 .809.641 1.47 1.445 1.47h2.883c.804 0 1.445-.661 1.445-1.47v-4.416h21.657v19.113c0 .809-.641 1.47-1.445 1.47H2.901c-.804 0-1.445-.661-1.445-1.47z"/></g></g></svg>