<svg xmlns="http://www.w3.org/2000/svg" width="56" height="50" viewBox="0 0 56 50"><g><g><path fill="#5eb6c4" d="M27.175.013c2.012 0 3.654 1.36 4.014 3.218h.106l13.188 14.514h-6.6L28.777 7.718c-.5.204-1.03.355-1.602.355-.563 0-1.102-.151-1.593-.355l-9.116 10.027h-6.59l13.18-14.514h.104c.372-1.858 2.013-3.218 4.015-3.218zM3.288 20.966h49.434c1.826 0 3.29 1.44 3.29 3.228v1.612c0 1.7-1.336 3.04-3.032 3.174l-5.207 17.78c-1.65 3.227-3.29 3.227-4.94 3.227H13.166c-1.639 0-3.29 0-4.939-3.226L3.03 28.98c-1.708-.135-3.042-1.473-3.042-3.174v-1.612c0-1.788 1.472-3.228 3.3-3.228zm9.269 8.06c-1.828 0-3.018 1.346-2.632 3.023l2.317 10.03c.387 1.684 2.19 3.068 4.014 3.068h.83c1.827 0 3.01-1.384 2.623-3.069l-2.318-10.03c-.385-1.676-2.187-3.022-4.015-3.022zm15.448 0c-1.828 0-3.3 1.44-3.3 3.229v9.672c0 1.788 1.472 3.22 3.3 3.22 1.826 0 3.29-1.432 3.29-3.22v-9.672c0-1.788-1.464-3.229-3.29-3.229zm14.618 0c-1.827 0-3.627 1.346-4.014 3.023l-2.318 10.03c-.385 1.684.798 3.068 2.622 3.068h.83c1.828 0 3.628-1.384 4.015-3.069l2.317-10.03c.385-1.676-.796-3.022-2.622-3.022z"/></g></g></svg>